<mxfile host="app.diagrams.net" modified="2023-05-05T10:04:45.981Z" agent="Mozilla/5.0 (Windows NT 10.0; Win64; x64; rv:109.0) Gecko/20100101 Firefox/112.0" etag="kX-xXjnf8GjJz7J8dEmk" version="21.2.8" type="device">
  <diagram name="Pagina-1" id="OxKqhFZz2plbKqOkzbJY">
    <mxGraphModel dx="307" dy="1732" grid="1" gridSize="10" guides="1" tooltips="1" connect="1" arrows="1" fold="1" page="1" pageScale="1" pageWidth="827" pageHeight="1169" math="0" shadow="0">
      <root>
        <mxCell id="0" />
        <mxCell id="1" parent="0" />
        <mxCell id="tcsaBj-2yrazW6xAQG2b-11" value="" style="ellipse;shape=cloud;whiteSpace=wrap;html=1;" vertex="1" parent="1">
          <mxGeometry x="1380" y="151.25" width="120" height="77.5" as="geometry" />
        </mxCell>
        <mxCell id="tcsaBj-2yrazW6xAQG2b-1" value="Shiftbase/Egress Package" style="shape=umlFrame;whiteSpace=wrap;html=1;pointerEvents=0;recursiveResize=0;container=1;collapsible=0;width=170;" vertex="1" parent="1">
          <mxGeometry x="830" y="75" width="510" height="205" as="geometry" />
        </mxCell>
        <mxCell id="tcsaBj-2yrazW6xAQG2b-2" value="[constraint1]" style="text;html=1;" vertex="1" parent="tcsaBj-2yrazW6xAQG2b-1">
          <mxGeometry width="100" height="20" relative="1" as="geometry">
            <mxPoint x="40" y="60" as="offset" />
          </mxGeometry>
        </mxCell>
        <mxCell id="tcsaBj-2yrazW6xAQG2b-13" style="edgeStyle=orthogonalEdgeStyle;rounded=0;orthogonalLoop=1;jettySize=auto;html=1;entryX=1;entryY=0.5;entryDx=0;entryDy=0;" edge="1" parent="tcsaBj-2yrazW6xAQG2b-1" source="tcsaBj-2yrazW6xAQG2b-4" target="tcsaBj-2yrazW6xAQG2b-9">
          <mxGeometry relative="1" as="geometry" />
        </mxCell>
        <mxCell id="tcsaBj-2yrazW6xAQG2b-4" value="&lt;div&gt;ClientInterface&lt;/div&gt;&lt;div&gt;&lt;i&gt;PSR-18&lt;/i&gt;&lt;br&gt;&lt;/div&gt;" style="html=1;dashed=0;whiteSpace=wrap;" vertex="1" parent="tcsaBj-2yrazW6xAQG2b-1">
          <mxGeometry x="380" y="85" width="100" height="50" as="geometry" />
        </mxCell>
        <mxCell id="tcsaBj-2yrazW6xAQG2b-9" value="&lt;div&gt;ResponseInterface&lt;br&gt;&lt;/div&gt;&lt;div&gt;&lt;i&gt;PSR-7&lt;/i&gt;&lt;br&gt;&lt;/div&gt;" style="html=1;dashed=0;whiteSpace=wrap;" vertex="1" parent="tcsaBj-2yrazW6xAQG2b-1">
          <mxGeometry x="210" y="145" width="110" height="50" as="geometry" />
        </mxCell>
        <mxCell id="tcsaBj-2yrazW6xAQG2b-14" style="edgeStyle=orthogonalEdgeStyle;rounded=0;orthogonalLoop=1;jettySize=auto;html=1;" edge="1" parent="1" source="tcsaBj-2yrazW6xAQG2b-6" target="tcsaBj-2yrazW6xAQG2b-8">
          <mxGeometry relative="1" as="geometry" />
        </mxCell>
        <mxCell id="tcsaBj-2yrazW6xAQG2b-6" value="&lt;div&gt;RequestFactoryInterface&lt;/div&gt;&lt;div&gt;&lt;i&gt;PSR-17&lt;/i&gt;&lt;br&gt;&lt;/div&gt;" style="html=1;dashed=0;whiteSpace=wrap;" vertex="1" parent="1">
          <mxGeometry x="840" y="120" width="153" height="50" as="geometry" />
        </mxCell>
        <mxCell id="tcsaBj-2yrazW6xAQG2b-16" style="edgeStyle=orthogonalEdgeStyle;rounded=0;orthogonalLoop=1;jettySize=auto;html=1;" edge="1" parent="1" source="tcsaBj-2yrazW6xAQG2b-7" target="tcsaBj-2yrazW6xAQG2b-6">
          <mxGeometry relative="1" as="geometry" />
        </mxCell>
        <mxCell id="tcsaBj-2yrazW6xAQG2b-7" value="&lt;div&gt;Guzzle\RequestFactory&lt;/div&gt;&lt;div&gt;&lt;i&gt;PSR-17&lt;/i&gt;&lt;br&gt;&lt;/div&gt;" style="html=1;dashed=0;whiteSpace=wrap;" vertex="1" parent="1">
          <mxGeometry x="840" y="310" width="153" height="50" as="geometry" />
        </mxCell>
        <mxCell id="tcsaBj-2yrazW6xAQG2b-12" style="edgeStyle=orthogonalEdgeStyle;rounded=0;orthogonalLoop=1;jettySize=auto;html=1;entryX=0;entryY=0.25;entryDx=0;entryDy=0;" edge="1" parent="1" source="tcsaBj-2yrazW6xAQG2b-8" target="tcsaBj-2yrazW6xAQG2b-4">
          <mxGeometry relative="1" as="geometry" />
        </mxCell>
        <mxCell id="tcsaBj-2yrazW6xAQG2b-8" value="&lt;div&gt;RequestInterface&lt;/div&gt;&lt;div&gt;&lt;i&gt;PSR-7&lt;/i&gt;&lt;br&gt;&lt;/div&gt;" style="html=1;dashed=0;whiteSpace=wrap;" vertex="1" parent="1">
          <mxGeometry x="1040" y="120" width="110" height="50" as="geometry" />
        </mxCell>
        <mxCell id="tcsaBj-2yrazW6xAQG2b-21" style="edgeStyle=orthogonalEdgeStyle;rounded=0;orthogonalLoop=1;jettySize=auto;html=1;entryX=1;entryY=0.75;entryDx=0;entryDy=0;dashed=1;" edge="1" parent="1" source="tcsaBj-2yrazW6xAQG2b-10" target="tcsaBj-2yrazW6xAQG2b-4">
          <mxGeometry relative="1" as="geometry" />
        </mxCell>
        <mxCell id="tcsaBj-2yrazW6xAQG2b-10" value="External Service" style="rounded=0;whiteSpace=wrap;html=1;" vertex="1" parent="1">
          <mxGeometry x="1554" y="120" width="100" height="140" as="geometry" />
        </mxCell>
        <mxCell id="tcsaBj-2yrazW6xAQG2b-15" style="edgeStyle=orthogonalEdgeStyle;rounded=0;orthogonalLoop=1;jettySize=auto;html=1;entryX=0.5;entryY=1;entryDx=0;entryDy=0;" edge="1" parent="1" source="tcsaBj-2yrazW6xAQG2b-5" target="tcsaBj-2yrazW6xAQG2b-4">
          <mxGeometry relative="1" as="geometry" />
        </mxCell>
        <mxCell id="tcsaBj-2yrazW6xAQG2b-5" value="&lt;div&gt;GuzzleHttp\Client&lt;/div&gt;&lt;div&gt;&lt;i&gt;PSR-18&lt;/i&gt;&lt;br&gt;&lt;/div&gt;" style="html=1;dashed=0;whiteSpace=wrap;" vertex="1" parent="1">
          <mxGeometry x="1210" y="310" width="100" height="50" as="geometry" />
        </mxCell>
        <mxCell id="tcsaBj-2yrazW6xAQG2b-20" style="edgeStyle=orthogonalEdgeStyle;rounded=0;orthogonalLoop=1;jettySize=auto;html=1;entryX=0.019;entryY=0.353;entryDx=0;entryDy=0;entryPerimeter=0;dashed=1;" edge="1" parent="1" source="tcsaBj-2yrazW6xAQG2b-4" target="tcsaBj-2yrazW6xAQG2b-10">
          <mxGeometry relative="1" as="geometry" />
        </mxCell>
        <mxCell id="tcsaBj-2yrazW6xAQG2b-17" value="Parser + ErrorHandler" style="shape=note2;boundedLbl=1;whiteSpace=wrap;html=1;size=25;verticalAlign=top;align=center;dashed=1;dashPattern=8 8;" vertex="1" parent="1">
          <mxGeometry x="1035" y="350" width="120" height="60" as="geometry" />
        </mxCell>
        <mxCell id="tcsaBj-2yrazW6xAQG2b-22" style="edgeStyle=orthogonalEdgeStyle;rounded=0;orthogonalLoop=1;jettySize=auto;html=1;dashed=1;dashPattern=8 8;" edge="1" parent="1" source="tcsaBj-2yrazW6xAQG2b-17" target="tcsaBj-2yrazW6xAQG2b-9">
          <mxGeometry relative="1" as="geometry" />
        </mxCell>
        <mxCell id="tcsaBj-2yrazW6xAQG2b-24" style="edgeStyle=orthogonalEdgeStyle;rounded=0;orthogonalLoop=1;jettySize=auto;html=1;dashed=1;dashPattern=8 8;" edge="1" parent="1" source="tcsaBj-2yrazW6xAQG2b-23" target="tcsaBj-2yrazW6xAQG2b-8">
          <mxGeometry relative="1" as="geometry" />
        </mxCell>
        <mxCell id="tcsaBj-2yrazW6xAQG2b-23" value="Serializer" style="shape=note2;boundedLbl=1;whiteSpace=wrap;html=1;size=25;verticalAlign=top;align=center;dashed=1;dashPattern=8 8;" vertex="1" parent="1">
          <mxGeometry x="1035" y="-40" width="120" height="60" as="geometry" />
        </mxCell>
      </root>
    </mxGraphModel>
  </diagram>
</mxfile>
